<svg preserveAspectRatio="none" width="100%" height="100%" overflow="visible" style="display: block;" viewBox="0 0 128 128" fill="none" xmlns="http://www.w3.org/2000/svg">
<g id="Group">
<path id="Vector" d="M86.116 82C82.7795 97.7793 75.1225 112.321 64 124C48.5934 107.823 40 86.3396 40 64C40 41.6604 48.5934 20.1769 64 4C52.9112 4.00289 42.0401 7.07867 32.5936 12.8859C23.147 18.6931 15.4945 27.0046 10.4856 36.8976C5.47676 46.7907 3.30744 57.8783 4.2185 68.9296C5.12956 79.9809 9.08534 90.5636 15.6467 99.5028C22.2081 108.442 31.1184 115.388 41.3884 119.57C51.6585 123.752 62.8865 125.006 73.8261 123.193C84.7657 121.379 94.9888 116.57 103.361 109.299C111.732 102.027 117.925 92.578 121.252 82M4 64H55M112 28V16C112 12.8174 110.736 9.76515 108.485 7.51472C106.235 5.26428 103.183 4 100 4C96.8174 4 93.7652 5.26428 91.5147 7.51472C89.2643 9.76515 88 12.8174 88 16V28" stroke="var(--stroke-0, #B4A269)" stroke-width="8" stroke-linecap="round" stroke-linejoin="round"/>
<path id="Vector_2" d="M118 28H82C78.6863 28 76 30.6863 76 34V52C76 55.3137 78.6863 58 82 58H118C121.314 58 124 55.3137 124 52V34C124 30.6863 121.314 28 118 28Z" stroke="var(--stroke-0, #B4A269)" stroke-width="8" stroke-linecap="round" stroke-linejoin="round"/>
</g>
</svg>
