<svg preserveAspectRatio="none" width="100%" height="100%" overflow="visible" style="display: block;" viewBox="0 0 126 47" fill="none" xmlns="http://www.w3.org/2000/svg">
<g id="AGARI">
<path id="Vector" d="M117.533 46.1457C117.315 46.1457 117.206 46.037 117.206 45.8194L117.271 0.979061C117.271 0.805008 117.358 0.717981 117.533 0.717981H124.843C125.017 0.717981 125.104 0.805008 125.104 0.979061L125.169 45.8194C125.169 46.037 125.082 46.1457 124.908 46.1457H117.533Z" fill="var(--fill-0, #55575A)"/>
<path id="Vector_2" d="M85.9797 46.1457C85.8057 46.1457 85.7186 46.037 85.7186 45.8194L85.8492 0.979061C85.8492 0.805008 85.9362 0.717981 86.1102 0.717981H99.2947C101.644 0.717981 103.798 1.30541 105.756 2.48027C107.758 3.61161 109.346 5.15633 110.521 7.11442C111.696 9.029 112.283 11.2047 112.283 13.6414C112.283 15.2514 112.044 16.7091 111.565 18.0145C111.087 19.2764 110.521 20.3642 109.868 21.278C109.216 22.1482 108.628 22.8009 108.106 23.236C110.456 25.8468 111.631 28.9145 111.631 32.4391L111.696 45.8194C111.696 46.037 111.587 46.1457 111.37 46.1457H103.994C103.82 46.1457 103.733 46.0805 103.733 45.9499V32.4391C103.733 30.8726 103.167 29.5237 102.036 28.3924C100.948 27.2175 99.5993 26.6301 97.9893 26.6301H93.6815L93.6163 45.8194C93.6163 46.037 93.5292 46.1457 93.3552 46.1457H85.9797ZM93.6815 18.7977H99.2947C100.644 18.7977 101.84 18.2973 102.885 17.2965C103.929 16.2957 104.451 15.0773 104.451 13.6414C104.451 12.249 103.929 11.0524 102.885 10.0516C101.884 9.05075 100.687 8.55035 99.2947 8.55035H93.6815V18.7977Z" fill="var(--fill-0, #55575A)"/>
<path id="Vector_3" d="M55.6451 45.8194L63.7385 0.979061C63.782 0.805008 63.8908 0.717981 64.0649 0.717981H73.529C73.703 0.717981 73.8118 0.805008 73.8553 0.979061L81.6224 45.8194C81.6659 46.037 81.5789 46.1457 81.3614 46.1457H74.1164C73.9424 46.1457 73.8336 46.037 73.7901 45.8194L73.0721 41.0547H64.1954L63.4774 45.8194C63.4339 46.037 63.3251 46.1457 63.1511 46.1457H55.9061C55.7321 46.1457 55.6451 46.037 55.6451 45.8194ZM65.5008 34.0708H71.7667L69.0906 15.73L68.699 13.315L68.4379 15.73L65.5008 34.0708Z" fill="var(--fill-0, #55575A)"/>
<path id="Vector_4" d="M40.6157 46.7984C38.266 46.7984 36.1338 46.211 34.2193 45.0362C32.3047 43.8613 30.76 42.2948 29.5851 40.3367C28.4538 38.3351 27.8881 36.1159 27.8881 33.6792V12.9887C27.8881 10.639 28.4538 8.48508 29.5851 6.52699C30.76 4.52538 32.3047 2.93715 34.2193 1.7623C36.1773 0.587443 38.3095 1.52588e-05 40.6157 1.52588e-05C43.0089 1.52588e-05 45.1628 0.587443 47.0774 1.7623C49.0355 2.89364 50.5802 4.43836 51.7115 6.39645C52.8429 8.35454 53.4086 10.552 53.4086 12.9887V15.9911C53.4086 16.1652 53.2998 16.2522 53.0822 16.2522H45.772C45.5979 16.2522 45.5109 16.1652 45.5109 15.9911V13.5109C45.5109 11.8574 45.0323 10.4867 44.075 9.39886C43.1612 8.31103 42.0081 7.76712 40.6157 7.76712C39.3538 7.76712 38.2225 8.28928 37.2217 9.33359C36.2644 10.3779 35.7857 11.5963 35.7857 12.9887V33.6792C35.7857 35.1151 36.2644 36.3553 37.2217 37.3996C38.179 38.4004 39.3103 38.9008 40.6157 38.9008C42.0081 38.9008 43.1612 38.4004 44.075 37.3996C45.0323 36.3988 45.5109 35.1587 45.5109 33.6792V30.481H40.942C40.7245 30.481 40.6157 30.3722 40.6157 30.1546V22.8444C40.6157 22.6269 40.7245 22.5181 40.942 22.5181H53.1475C53.3215 22.5181 53.4086 22.6269 53.4086 22.8444V33.6792C53.4086 36.1159 52.8211 38.3351 51.6463 40.3367C50.5149 42.2948 48.992 43.8613 47.0774 45.0362C45.1628 46.211 43.0089 46.7984 40.6157 46.7984Z" fill="var(--fill-0, #55575A)"/>
<path id="Vector_5" d="M4.57764e-05 45.8194L8.0935 0.979061C8.13701 0.805008 8.24579 0.717981 8.41984 0.717981H17.884C18.058 0.717981 18.1668 0.805008 18.2103 0.979061L25.9774 45.8194C26.0209 46.037 25.9339 46.1457 25.7163 46.1457H18.4714C18.2973 46.1457 18.1886 46.037 18.145 45.8194L17.4271 41.0547H8.55038L7.83242 45.8194C7.7889 46.037 7.68012 46.1457 7.50607 46.1457H0.261125C0.0870721 46.1457 4.57764e-05 46.037 4.57764e-05 45.8194ZM9.85578 34.0708H16.1217L13.4456 15.73L13.054 13.315L12.7929 15.73L9.85578 34.0708Z" fill="var(--fill-0, #55575A)"/>
</g>
</svg>
