<svg preserveAspectRatio="none" width="100%" height="100%" overflow="visible" style="display: block;" viewBox="0 0 73 95" fill="none" xmlns="http://www.w3.org/2000/svg">
<g id="Group 37">
<path id="Vector 6 (Stroke)" d="M72.7856 40.546L72.7856 53.0239L55.9408 53.0239L55.9408 40.546L72.7856 40.546Z" fill="url(#paint0_linear_5932_23438)"/>
<path id="Vector 7 (Stroke)" d="M17.2606 40.546V53.0239H0L0 40.546H17.2606Z" fill="url(#paint1_linear_5932_23438)"/>
<g id="Group 6">
<path id="Vector 1 (Stroke)" d="M49.7825 47.3087C49.7824 40.3873 45.2874 35.4935 37.1406 29.121C33.3897 26.187 28.6856 22.7938 24.6343 19.1674C20.4777 15.4467 16.4298 11.0072 13.739 5.39384L24.9907 0C26.6885 3.54171 29.4169 6.70223 32.9561 9.87022C36.6006 13.1325 40.5122 15.9168 44.8281 19.2928C52.8151 25.5403 62.2599 33.7974 62.26 47.3087C62.26 60.7232 53.0876 69.3982 45.0717 75.849C40.6108 79.439 36.9771 81.9903 33.15 85.2446C29.5456 88.3095 26.8636 91.1455 25.2305 94.0888L14.3193 88.0356C17.0361 83.1388 21.0597 79.1465 25.067 75.739C28.8516 72.5209 33.7361 68.9555 37.2492 66.1283C45.1815 59.7447 49.7825 54.3825 49.7825 47.3087Z" fill="url(#paint2_linear_5932_23438)"/>
<path id="Vector 2 (Stroke)" d="M23.4986 47.3087C23.4986 40.3873 27.9937 35.4935 36.1405 29.121C39.8914 26.187 44.5955 22.7938 48.6468 19.1674C52.8034 15.4467 56.8513 11.0072 59.5421 5.39384L48.2904 0C46.5926 3.54171 43.8642 6.70223 40.325 9.87022C36.6805 13.1325 32.7689 15.9168 28.453 19.2928C20.466 25.5403 11.0212 33.7974 11.0211 47.3087C11.0211 60.7232 20.1935 69.3982 28.2094 75.849C32.6703 79.439 36.304 81.9903 40.1311 85.2446C43.7355 88.3095 46.4175 91.1455 48.0506 94.0888L58.9618 88.0356C56.245 83.1388 52.2213 79.1465 48.2141 75.739C44.4295 72.5209 39.545 68.9555 36.0319 66.1283C28.0995 59.7447 23.4986 54.3825 23.4986 47.3087Z" fill="url(#paint3_linear_5932_23438)"/>
<path id="Vector 3 (Stroke)" d="M24.9907 0C26.6885 3.54171 29.4169 6.70223 32.9561 9.87022C36.6006 13.1325 40.5122 15.9168 44.8281 19.2928C52.8151 25.5403 62.2599 33.7974 62.26 47.3087H49.7825C49.7824 40.3873 45.2874 35.4935 37.1406 29.121C33.3897 26.187 28.6856 22.7938 24.6343 19.1674C20.4777 15.4467 16.4298 11.0072 13.739 5.39384L24.9907 0Z" fill="var(--fill-0, #9F2241)"/>
</g>
<path id="Vector 5 (Stroke)" d="M36.3926 38.5843L45.2158 47.4075L36.3929 56.2304L27.5697 47.4071L36.3926 38.5843Z" fill="var(--fill-0, #B4A269)"/>
</g>
<defs>
<linearGradient id="paint0_linear_5932_23438" x1="36.4369" y1="47.0112" x2="74.0333" y2="47.0112" gradientUnits="userSpaceOnUse">
<stop stop-color="#5E4935"/>
<stop offset="1" stop-color="#B4A269"/>
</linearGradient>
<linearGradient id="paint1_linear_5932_23438" x1="36.1899" y1="47.0112" x2="5.15441e-07" y2="47.0112" gradientUnits="userSpaceOnUse">
<stop stop-color="#5E4935"/>
<stop offset="1" stop-color="#B4A269"/>
</linearGradient>
<linearGradient id="paint2_linear_5932_23438" x1="49.9564" y1="57.8145" x2="23.1044" y2="88.228" gradientUnits="userSpaceOnUse">
<stop stop-color="#9F2241"/>
<stop offset="0.49077" stop-color="#440D1C"/>
<stop offset="1" stop-color="#9F2241"/>
</linearGradient>
<linearGradient id="paint3_linear_5932_23438" x1="51.5182" y1="5.19753" x2="20.0018" y2="37.8507" gradientUnits="userSpaceOnUse">
<stop stop-color="#348F41"/>
<stop offset="0.544144" stop-color="#204727"/>
<stop offset="1" stop-color="#348F41"/>
</linearGradient>
</defs>
</svg>
