<svg preserveAspectRatio="none" width="100%" height="100%" overflow="visible" style="display: block;" viewBox="0 0 43 16" fill="none" xmlns="http://www.w3.org/2000/svg">
<g id="AGARI">
<path id="Vector" d="M39.5899 15.5438C39.5166 15.5438 39.48 15.5072 39.48 15.4339L39.502 0.329801C39.502 0.271173 39.5313 0.241859 39.5899 0.241859H42.0523C42.1109 0.241859 42.1402 0.271173 42.1402 0.329801L42.1622 15.4339C42.1622 15.5072 42.1329 15.5438 42.0743 15.5438H39.5899Z" fill="var(--fill-0, #55575A)"/>
<path id="Vector_2" d="M28.9616 15.5438C28.903 15.5438 28.8736 15.5072 28.8736 15.4339L28.9176 0.329801C28.9176 0.271173 28.9469 0.241859 29.0056 0.241859H33.4466C34.2381 0.241859 34.9637 0.439729 35.6232 0.83547C36.2974 1.21655 36.8324 1.73688 37.2282 2.39645C37.6239 3.04136 37.8218 3.77421 37.8218 4.59501C37.8218 5.13732 37.7412 5.62833 37.5799 6.06804C37.4187 6.4931 37.2282 6.85953 37.0083 7.16732C36.7885 7.46047 36.5906 7.68032 36.4147 7.82689C37.2062 8.70632 37.6019 9.73964 37.6019 10.9269L37.6239 15.4339C37.6239 15.5072 37.5873 15.5438 37.514 15.5438H35.0296C34.971 15.5438 34.9417 15.5219 34.9417 15.4779V10.9269C34.9417 10.3992 34.7511 9.94484 34.37 9.56375C34.0036 9.16801 33.5492 8.97014 33.0069 8.97014H31.5559L31.5339 15.4339C31.5339 15.5072 31.5046 15.5438 31.446 15.5438H28.9616ZM31.5559 6.33187H33.4466C33.901 6.33187 34.3041 6.16331 34.6559 5.8262C35.0076 5.48909 35.1835 5.07869 35.1835 4.59501C35.1835 4.12598 35.0076 3.72291 34.6559 3.3858C34.3187 3.04869 33.9157 2.88013 33.4466 2.88013H31.5559V6.33187Z" fill="var(--fill-0, #55575A)"/>
<path id="Vector_3" d="M18.7436 15.4339L21.4698 0.329801C21.4845 0.271173 21.5211 0.241859 21.5797 0.241859H24.7676C24.8263 0.241859 24.8629 0.271173 24.8776 0.329801L27.4939 15.4339C27.5085 15.5072 27.4792 15.5438 27.4059 15.5438H24.9655C24.9069 15.5438 24.8702 15.5072 24.8556 15.4339L24.6137 13.829H21.6237L21.3819 15.4339C21.3672 15.5072 21.3306 15.5438 21.2719 15.5438H18.8315C18.7729 15.5438 18.7436 15.5072 18.7436 15.4339ZM22.0634 11.4765H24.174L23.2726 5.29855L23.1407 4.48508L23.0528 5.29855L22.0634 11.4765Z" fill="var(--fill-0, #55575A)"/>
<path id="Vector_4" d="M13.6811 15.7637C12.8896 15.7637 12.1714 15.5658 11.5265 15.1701C10.8816 14.7743 10.3612 14.2467 9.9655 13.5871C9.58442 12.9129 9.39387 12.1654 9.39387 11.3446V4.37514C9.39387 3.58365 9.58442 2.85813 9.9655 2.19856C10.3612 1.52433 10.8816 0.989352 11.5265 0.593612C12.186 0.197871 12.9042 0 13.6811 0C14.4872 0 15.2127 0.197871 15.8576 0.593612C16.5172 0.974695 17.0375 1.49502 17.4186 2.15459C17.7997 2.81416 17.9902 3.55434 17.9902 4.37514V5.38647C17.9902 5.4451 17.9536 5.47441 17.8803 5.47441H15.4179C15.3593 5.47441 15.33 5.4451 15.33 5.38647V4.55102C15.33 3.99405 15.1688 3.53235 14.8463 3.16593C14.5385 2.7995 14.1501 2.61629 13.6811 2.61629C13.256 2.61629 12.8749 2.79217 12.5378 3.14394C12.2154 3.49571 12.0541 3.90611 12.0541 4.37514V11.3446C12.0541 11.8283 12.2154 12.246 12.5378 12.5978C12.8603 12.9349 13.2414 13.1034 13.6811 13.1034C14.1501 13.1034 14.5385 12.9349 14.8463 12.5978C15.1688 12.2606 15.33 11.8429 15.33 11.3446V10.2673H13.791C13.7177 10.2673 13.6811 10.2306 13.6811 10.1573V7.69496C13.6811 7.62168 13.7177 7.58503 13.791 7.58503H17.9023C17.9609 7.58503 17.9902 7.62168 17.9902 7.69496V11.3446C17.9902 12.1654 17.7924 12.9129 17.3966 13.5871C17.0156 14.2467 16.5026 14.7743 15.8576 15.1701C15.2127 15.5658 14.4872 15.7637 13.6811 15.7637Z" fill="var(--fill-0, #55575A)"/>
<path id="Vector_5" d="M0 15.4339L2.72621 0.329801C2.74087 0.271173 2.77751 0.241859 2.83614 0.241859H6.02406C6.08268 0.241859 6.11933 0.271173 6.13398 0.329801L8.75027 15.4339C8.76493 15.5072 8.73561 15.5438 8.66233 15.5438H6.22193C6.1633 15.5438 6.12665 15.5072 6.112 15.4339L5.87016 13.829H2.88011L2.63827 15.4339C2.62362 15.5072 2.58697 15.5438 2.52834 15.5438H0.0879424C0.0293141 15.5438 0 15.5072 0 15.4339ZM3.31983 11.4765H5.43044L4.52903 5.29855L4.39712 4.48508L4.30918 5.29855L3.31983 11.4765Z" fill="var(--fill-0, #55575A)"/>
</g>
</svg>
