<svg preserveAspectRatio="none" width="100%" height="100%" overflow="visible" style="display: block;" viewBox="0 0 25 32" fill="none" xmlns="http://www.w3.org/2000/svg">
<g id="Group 37">
<path id="Vector 6 (Stroke)" d="M24.5172 13.6576L24.5172 17.8607L18.8432 17.8607L18.8432 13.6576L24.5172 13.6576Z" fill="url(#paint0_linear_5932_23403)"/>
<path id="Vector 7 (Stroke)" d="M5.81409 13.6576V17.8607H0L0 13.6576H5.81409Z" fill="url(#paint1_linear_5932_23403)"/>
<g id="Group 6">
<path id="Vector 1 (Stroke)" d="M16.7689 15.9356C16.7689 13.6041 15.2547 11.9557 12.5106 9.8092C11.2471 8.8209 9.66258 7.67791 8.29791 6.45638C6.89779 5.20311 5.53431 3.7077 4.62793 1.81687L8.41799 0C8.98985 1.193 9.9089 2.25759 11.101 3.3247C12.3287 4.42357 13.6463 5.36145 15.1001 6.49863C17.7904 8.60306 20.9718 11.3844 20.9718 15.9356C20.9718 20.4541 17.8822 23.3762 15.1821 25.5491C13.6795 26.7584 12.4555 27.6178 11.1664 28.714C9.95224 29.7464 9.04883 30.7016 8.49874 31.6931L4.8234 29.6541C5.73853 28.0047 7.09386 26.6599 8.44366 25.5121C9.71847 24.4281 11.3638 23.2271 12.5471 22.2748C15.2191 20.1245 16.7689 18.3183 16.7689 15.9356Z" fill="url(#paint2_linear_5932_23403)"/>
<path id="Vector 2 (Stroke)" d="M7.91533 15.9356C7.91536 13.6041 9.42949 11.9557 12.1737 9.8092C13.4371 8.8209 15.0217 7.67791 16.3863 6.45638C17.7864 5.20311 19.1499 3.7077 20.0563 1.81687L16.2663 0C15.6944 1.193 14.7753 2.25759 13.5832 3.3247C12.3556 4.42357 11.038 5.36145 9.58418 6.49863C6.89382 8.60306 3.71244 11.3844 3.71241 15.9356C3.71241 20.4541 6.80206 23.3762 9.50213 25.5491C11.0048 26.7584 12.2287 27.6178 13.5179 28.714C14.732 29.7464 15.6354 30.7016 16.1855 31.6931L19.8608 29.6541C18.9457 28.0047 17.5904 26.6599 16.2406 25.5121C14.9658 24.4281 13.3205 23.2271 12.1371 22.2748C9.46514 20.1245 7.91533 18.3183 7.91533 15.9356Z" fill="url(#paint3_linear_5932_23403)"/>
<path id="Vector 3 (Stroke)" d="M8.41799 0C8.98985 1.193 9.9089 2.2576 11.101 3.3247C12.3287 4.42357 13.6463 5.36145 15.1001 6.49863C17.7904 8.60306 20.9718 11.3844 20.9718 15.9356H16.7689C16.7689 13.6041 15.2547 11.9557 12.5106 9.8092C11.2471 8.8209 9.66258 7.67791 8.29791 6.45638C6.89779 5.20312 5.53431 3.7077 4.62793 1.81687L8.41799 0Z" fill="var(--fill-0, #9F2241)"/>
</g>
<path id="Vector 5 (Stroke)" d="M12.2585 12.9968L15.2306 15.9688L12.2587 18.9407L9.28664 15.9687L12.2585 12.9968Z" fill="var(--fill-0, #B4A269)"/>
</g>
<defs>
<linearGradient id="paint0_linear_5932_23403" x1="12.2735" y1="15.8354" x2="24.9375" y2="15.8354" gradientUnits="userSpaceOnUse">
<stop stop-color="#5E4935"/>
<stop offset="1" stop-color="#B4A269"/>
</linearGradient>
<linearGradient id="paint1_linear_5932_23403" x1="12.1903" y1="15.8354" x2="1.73622e-07" y2="15.8354" gradientUnits="userSpaceOnUse">
<stop stop-color="#5E4935"/>
<stop offset="1" stop-color="#B4A269"/>
</linearGradient>
<linearGradient id="paint2_linear_5932_23403" x1="16.8275" y1="19.4744" x2="7.78259" y2="29.7189" gradientUnits="userSpaceOnUse">
<stop stop-color="#9F2241"/>
<stop offset="0.49077" stop-color="#440D1C"/>
<stop offset="1" stop-color="#9F2241"/>
</linearGradient>
<linearGradient id="paint3_linear_5932_23403" x1="17.3535" y1="1.75075" x2="6.73749" y2="12.7497" gradientUnits="userSpaceOnUse">
<stop stop-color="#348F41"/>
<stop offset="0.544144" stop-color="#204727"/>
<stop offset="1" stop-color="#348F41"/>
</linearGradient>
</defs>
</svg>
